<svg width="160" height="54" viewBox="0 0 160 54" fill="none" xmlns="http://www.w3.org/2000/svg">
<path d="M71.6318 32.2261C71.5054 34.9777 70.7322 37.0592 69.3122 38.4708C67.8921 39.8824 65.8822 40.5903 63.2823 40.5946C60.5518 40.5946 58.4597 39.697 57.006 37.902C55.5522 36.1069 54.8275 33.5471 54.8317 30.2225V26.1583C54.8317 22.8463 55.5817 20.2928 57.0818 18.4978C58.5819 16.7027 60.6698 15.8052 63.3455 15.8052C65.9749 15.8052 67.9722 16.5405 69.3375 18.0111C70.7027 19.4817 71.478 21.5885 71.6634 24.3317H66.7776C66.7313 22.6462 66.4679 21.4726 65.9875 20.8111C65.5072 20.179 64.6286 19.844 63.3455 19.844C62.8032 19.7954 62.258 19.8971 61.7696 20.1379C61.2812 20.3787 60.8687 20.7494 60.5771 21.2093C60.0462 22.1258 59.7491 23.6301 59.7175 25.7285V30.2857C59.7175 32.6833 59.9851 34.3287 60.5202 35.222C60.8139 35.6768 61.2268 36.0421 61.7138 36.2784C62.2009 36.5147 62.7434 36.6128 63.2823 36.562C64.5464 36.562 65.444 36.2523 65.9307 35.6266C66.4173 35.0008 66.6891 33.8694 66.7587 32.2387L71.6318 32.2261Z" fill="#A70050"/>
<path d="M89.2725 30.9998C89.3091 32.7135 88.9816 34.4154 88.3118 35.9931C87.7436 37.3496 86.7953 38.5129 85.5813 39.343C84.384 40.1382 82.9732 40.5504 81.5361 40.525C80.1052 40.5461 78.7 40.1437 77.4973 39.3683C76.272 38.5422 75.3126 37.3786 74.7352 36.0184C74.0518 34.4351 73.7156 32.7239 73.7492 30.9998V30.254C73.7112 28.5191 74.0408 26.7959 74.7162 25.1975C75.2876 23.8392 76.2404 22.6756 77.4593 21.8476C78.6678 21.0518 80.0895 20.6418 81.5361 20.672C82.5642 20.6438 83.5857 20.8454 84.526 21.262C85.4664 21.6786 86.3019 22.2997 86.9718 23.0801C88.3877 24.6855 89.1567 26.8303 89.2789 29.5145L89.2725 30.9998ZM84.5827 30.2224C84.663 28.7767 84.3874 27.3335 83.7799 26.0192C83.5814 25.5831 83.2616 25.2134 82.8587 24.9541C82.4558 24.6948 81.9868 24.557 81.5077 24.557C81.0286 24.557 80.5596 24.6948 80.1567 24.9541C79.7537 25.2134 79.4339 25.5831 79.2354 26.0192C78.6482 27.3392 78.3817 28.7796 78.458 30.2224V30.9809C78.3756 32.4361 78.6557 33.8891 79.2734 35.2093C79.4755 35.64 79.7951 36.0049 80.1954 36.262C80.5957 36.5192 81.0604 36.6582 81.5361 36.6631C82.0081 36.6556 82.4679 36.5121 82.8603 36.2497C83.2527 35.9874 83.561 35.6173 83.7483 35.184C84.3458 33.8954 84.6254 32.4821 84.5637 31.063L84.5827 30.2224Z" fill="#A70050"/>
<path d="M92.3191 40.2659V16.1401H98.7029C101.518 16.1401 103.761 17.0334 105.434 18.8201C107.109 20.6151 107.963 23.0612 107.994 26.1772V30.0897C107.994 33.2542 107.151 35.7424 105.466 37.5543C103.78 39.3662 101.492 40.2701 98.6018 40.2659H92.3191ZM97.1923 20.2043V36.2207H98.6523C100.277 36.2207 101.414 35.7909 102.078 34.9566C102.742 34.1222 103.089 32.6243 103.121 30.5321V26.31C103.121 24.0598 102.811 22.486 102.179 21.5948C101.547 20.7036 100.479 20.2422 98.9684 20.198L97.1923 20.2043Z" fill="#A70050"/>
<path d="M122.057 32.245H115.737V36.3976H123.252V40.2658H111.079V20.9564H123.252V24.8689H115.762V28.3515H122.083L122.057 32.245Z" fill="#A70050"/>
<path d="M137.353 35.3232H130.71L129.415 40.2659H124.263L131.804 16.1465H136.26L143.845 40.2659H138.643L137.353 35.3232ZM131.766 31.2654H136.273L133.997 22.6693L131.766 31.2654Z" fill="#A70050"/>
<path d="M152.061 33.6166H150.393V40.2658H145.684V20.9564H152.674C154.811 20.9564 156.467 21.4621 157.642 22.467C158.241 23.0034 158.71 23.668 159.015 24.4111C159.321 25.1543 159.454 25.9568 159.406 26.7587C159.446 27.9156 159.212 29.0656 158.723 30.115C158.215 31.059 157.43 31.8245 156.473 32.3082L160 40.0636V40.2658H154.944L152.061 33.6166ZM150.393 29.7231H152.592C154.008 29.7231 154.716 28.9119 154.716 27.2897C154.716 25.6842 154.04 24.8815 152.693 24.8689H150.393V29.7231Z" fill="#A70050"/>
<path d="M15.9534 53.7377L40.4957 32.0117L33.9709 0L18.5948 13.6094L28.933 31.5394L15.9534 53.7377Z" fill="#A70050"/>
<path d="M15.2887 13.6093L12.8222 9.32361L0 31.5394L12.6997 53.5278L12.8222 53.7377L12.9796 53.4403L25.6269 31.5394L15.2887 13.6093Z" fill="#3C467E"/>
</svg>
